<?xml version="1.0" encoding="UTF-8"?>
<svg width="220px" height="220px" viewBox="0 0 220 220" version="1.1" xmlns="http://www.w3.org/2000/svg" xmlns:xlink="http://www.w3.org/1999/xlink">
    <title>Group</title>
    <g id="Page-1" stroke="none" stroke-width="1" fill="none" fill-rule="evenodd">
        <g id="Icons-2022" transform="translate(-48.000000, -27.000000)" fill="#BD8C1B" fill-rule="nonzero">
            <g id="Group" transform="translate(48.000000, 27.000000)">
                <g id="hospital-sign">
                    <path d="M57.5,35 C55.016,35 53,37.016 53,39.5 C53,41.984 55.016,44 57.5,44 C59.984,44 62,41.984 62,39.5 C62,37.016 59.984,35 57.5,35 Z" id="Path"></path>
                    <path d="M110,0 C50.7117187,0 0,50.6176172 0,110 C0,169.301602 50.6236328,220 110,220 C169.288281,220 220,169.382383 220,110 C220,50.6983984 169.376367,0 110,0 Z M110,211.40625 C55.0322266,211.40625 8.59375,164.967773 8.59375,110 C8.59375,55.0322266 55.0322266,8.59375 110,8.59375 C164.967773,8.59375 211.40625,55.0322266 211.40625,110 C211.40625,164.967773 164.967773,211.40625 110,211.40625 Z" id="Shape"></path>
                    <path d="M110.5,19 C96.7255986,19 82.154331,22.1788732 70.522662,27.7217113 C68.3812183,28.7423873 67.4718028,31.3061056 68.4924789,33.4475493 C69.5127254,35.588993 72.0755845,36.4992676 74.2183169,35.4777324 C84.735662,30.4658521 97.9602042,27.5915493 110.5,27.5915493 C155.441106,27.5915493 193.408451,65.5588944 193.408451,110.5 C193.408451,155.441106 155.441106,193.408451 110.5,193.408451 C65.5588944,193.408451 27.5915493,155.441106 27.5915493,110.5 C27.5915493,89.9722113 35.1224718,69.7395423 48.2537958,54.9895704 C49.8316338,53.2175634 49.6739789,50.5022042 47.9019718,48.9247958 C46.1295352,47.3465282 43.4150352,47.5059014 41.8371972,49.2766197 C27.323493,65.5790845 19,87.8939155 19,110.5 C19,160.214141 60.7132606,202 110.5,202 C160.214141,202 202,160.286739 202,110.5 C202,60.7858592 160.286739,19 110.5,19 Z" id="Path"></path>
                </g>
                <g id="noun-prime-3394658" transform="translate(63.000000, 61.000000)">
                    <polygon id="Path" points="48 87 51 87 51 90 48 90"></polygon>
                    <path d="M91.4404745,74.3576456 C92.032079,72.8524266 91.847336,71.1486722 90.9487773,69.8084648 C90.0495009,68.4676615 88.552768,67.665921 86.951932,67.666666 L77.2906042,67.666666 L77.2906042,62.0633477 C77.2906042,59.6596907 76.3467569,57.3541839 74.6675077,55.6547131 C72.9882585,53.9552423 70.7102278,53 68.3351974,53 L67.6292948,53 C66.7400846,53 66.0190735,53.7297016 66.0190735,54.6296296 L66.0190735,56.8187342 C66.0341692,62.0618578 64.0608603,67.1109157 60.5069639,70.9259251 L56.3577456,70.9259251 L56.3577456,69.2962955 C56.3577456,68.864155 56.1880964,68.4494655 55.8861808,68.1439146 C55.5842653,67.8383638 55.1745182,67.666666 54.7475243,67.666666 L0,67.666666 L0,70.9259251 L53.137303,70.9259251 L53.137303,93.7407388 L0,93.7407388 L0,97 L54.7475243,97 C55.1745182,97 55.5842689,96.8283039 55.8861808,96.5227493 C56.1880927,96.2171947 56.3577456,95.8025089 56.3577456,95.3703684 L56.3577456,93.7407388 L60.8139181,93.7407388 C65.1845188,95.8803028 69.9756172,96.9942244 74.8307565,97 L80.5110652,97 C82.0795864,97.0007254 83.5504269,96.2302913 84.4561994,94.9338139 C85.3612358,93.6381187 85.5883782,91.9779453 85.0650655,90.4814797 L85.3418211,90.4814797 C86.9103423,90.4822072 88.3811828,89.7117731 89.2869553,88.4152957 C90.1919917,87.1196005 90.4191341,85.4594271 89.8958214,83.9629615 L90.172577,83.9629615 C91.7454228,83.9622341 93.2198519,83.1859728 94.123416,81.8822505 C95.027017,80.5792732 95.2469825,78.9125998 94.7135851,77.4146444 C94.1794885,75.9174152 92.9581495,74.7766932 91.4406953,74.3576456 L91.4404745,74.3576456 Z M90.1724298,80.7037024 L78.9008807,80.7037024 L78.9008807,83.9629615 L85.3417659,83.9629615 C86.2309761,83.9629615 86.9519872,84.6926631 86.9519872,85.5925911 C86.9519872,86.4925191 86.2309761,87.2222206 85.3417659,87.2222206 L77.2906594,87.2222206 L77.2906594,90.4814797 L80.511102,90.4814797 C81.4003122,90.4814797 82.1213233,91.2111813 82.1213233,92.1111093 C82.1213233,93.0110373 81.4003122,93.7407388 80.511102,93.7407388 L74.8307933,93.7407388 C70.3451768,93.7356462 65.9221289,92.6785742 61.9087213,90.6539411 C61.6851674,90.5404481 61.4385919,90.4815207 61.188428,90.4815207 L56.357764,90.4815207 L56.357764,74.1852252 L61.188428,74.1852252 C61.6154218,74.1852252 62.0251726,74.0135311 62.3270844,73.7079765 C66.7674307,69.2381355 69.2567408,63.1569167 69.2394425,56.8186821 L69.2394425,56.3312459 C70.5865628,56.5495045 71.8128521,57.2457381 72.6985659,58.2962998 C73.5834699,59.3468242 74.0701248,60.6824499 74.0701248,62.0634446 L74.0701248,67.6667628 L70.8496822,67.6667628 L70.8496822,70.9260219 L86.9518952,70.9260219 C87.8411054,70.9260219 88.5621165,71.6557235 88.5621165,72.5556515 C88.5621165,73.4555795 87.8411054,74.185281 86.9518952,74.185281 L80.51101,74.185281 L80.51101,77.4445401 L90.1723378,77.4445401 C91.061548,77.4445401 91.7825591,78.1742417 91.7825591,79.0741697 C91.7825591,79.9740977 91.061548,80.7037993 90.1723378,80.7037993 L90.1724298,80.7037024 Z" id="Shape"></path>
                    <path d="M56.2631579,12.6315789 L80.7368421,12.6315789 L80.7368421,64 L84,64 L84,11.0263158 C84,10.6006367 83.8281006,10.1921477 83.5221805,9.89116541 C83.2162603,9.59018316 82.8010785,9.42105263 82.3684211,9.42105263 L79.1052632,9.42105263 L79.1052632,3 L75.8421053,3 L75.8421053,9.42105263 L72.5789474,9.42105263 L72.5789474,6.21052632 L69.3157895,6.21052632 L69.3157895,9.42105263 L54.6315789,9.42105263 C53.7305744,9.42105263 53,10.1398436 53,11.0263158 L53,35.1052632 L56.2631579,35.1052632 L56.2631579,12.6315789 Z" id="Path"></path>
                    <path d="M23.3333333,23.1304348 L46.6666667,23.1304348 L46.6666667,36.3478261 L50,36.3478261 L50,21.4782609 C50,21.0401421 49.8244038,20.6197158 49.5119048,20.3099379 C49.1994057,20.00016 48.7752952,19.826087 48.3333333,19.826087 L46.6666667,19.826087 L46.6666667,14.8695652 C46.6666667,14.4314465 46.4910705,14.0110201 46.1785714,13.7012422 C45.8660724,13.3914643 45.4419619,13.2173913 45,13.2173913 L43.3333333,13.2173913 L43.3333333,8.26086957 C43.3333333,7.82275081 43.1577371,7.40232447 42.8452381,7.09254658 C42.532739,6.7827687 42.1086286,6.60869565 41.6666667,6.60869565 L40,6.60869565 L40,3.30434783 L36.6666667,3.30434783 L36.6666667,6.60869565 L33.3333333,6.60869565 L33.3333333,0 L30,0 L30,6.60869565 L28.3333333,6.60869565 C27.4129524,6.60869565 26.6666667,7.34849193 26.6666667,8.26086957 L26.6666667,13.2173913 L25,13.2173913 C24.079619,13.2173913 23.3333333,13.9571876 23.3333333,14.8695652 L23.3333333,19.826087 L21.6666667,19.826087 C20.7462857,19.826087 20,20.5658832 20,21.4782609 L20,38 L23.3333333,38 L23.3333333,23.1304348 Z M30,9.91304348 L40,9.91304348 L40,13.2173913 L30,13.2173913 L30,9.91304348 Z M26.6666667,16.5217391 L43.3333333,16.5217391 L43.3333333,19.826087 L26.6666667,19.826087 L26.6666667,16.5217391 Z" id="Shape"></path>
                    <path d="M63,64 L63,39.625 C63,39.1940871 62.8244038,38.7805757 62.5119048,38.4758929 C62.1994057,38.17121 61.7752952,38 61.3333333,38 L34.6666667,38 C33.7462857,38 33,38.7276286 33,39.625 L33,64 L36.3333333,64 L36.3333333,41.25 L59.6666667,41.25 L59.6666667,64 L63,64 Z" id="Path"></path>
                    <path d="M13.2617583,60.7060067 L27.939587,60.7060067 L27.939587,57.4119004 L13.2617583,57.4119004 L13.2617583,54.1177941 L24.6778473,54.1177941 L24.6778473,50.8236878 L13.2617583,50.8236878 L13.2617583,47.5295815 L19.7852377,47.5295815 L19.7852377,44.2354753 L13.2617583,44.2354753 L13.2617583,39.803867 L29.1423302,44.1773108 L30,40.9993453 L12.0604316,36.0581858 C11.5704438,35.9228922 11.0455087,36.0265681 10.6414258,36.3376013 C10.2373428,36.6493556 10,37.133928 10,37.6471498 L10,64 L13.2617397,64 L13.2617583,60.7060067 Z" id="Path"></path>
                    <polygon id="Path" points="40 46 43 46 43 62 40 62"></polygon>
                    <polygon id="Path" points="46 46 49 46 49 62 46 62"></polygon>
                    <polygon id="Path" points="53 46 56 46 56 62 53 62"></polygon>
                    <polygon id="Path" points="26 26 29 26 29 29 26 29"></polygon>
                    <polygon id="Path" points="31 33 34 33 34 36 31 36"></polygon>
                    <polygon id="Path" points="40 28 43 28 43 31 40 31"></polygon>
                    <polygon id="Path" points="61 25 64 25 64 28 61 28"></polygon>
                    <polygon id="Path" points="68 17 71 17 71 20 68 20"></polygon>
                    <polygon id="Path" points="66 35 69 35 69 38 66 38"></polygon>
                    <polygon id="Path" points="64 46 67 46 67 49 64 49"></polygon>
                    <polygon id="Path" points="74 41 77 41 77 44 74 44"></polygon>
                    <polygon id="Path" points="74 28 77 28 77 31 74 31"></polygon>
                </g>
            </g>
        </g>
    </g>
</svg>